<?xml version="1.0" encoding="utf-8"?>
<!DOCTYPE svg PUBLIC "-//W3C//DTD SVG 1.1//EN" "http://www.w3.org/Graphics/SVG/1.1/DTD/svg11.dtd">
<svg version="1.1" id="Layer_1" xmlns="http://www.w3.org/2000/svg" xmlns:xlink="http://www.w3.org/1999/xlink" x="0px" y="0px"
	 width="432px" height="432px" viewBox="0 0 432 432" style="enable-background:new 0 0 432 432;" xml:space="preserve">
<style type="text/css">
<![CDATA[
	.st0{fill:#59CBE8;}
]]>
</style>
<g>
	<path class="st0" d="M368.7,63.3C327.9,22.5,273.7,0,216,0C158.3,0,104.1,22.5,63.3,63.3C22.5,104.1,0,158.3,0,216
		c0,57.7,22.5,111.9,63.3,152.7c40.8,40.8,95,63.3,152.7,63.3c57.7,0,111.9-22.5,152.7-63.3S432,273.7,432,216
		C432,158.3,409.5,104.1,368.7,63.3z M216,399.6c-101.2,0-183.6-82.4-183.6-183.6S114.8,32.4,216,32.4S399.6,114.8,399.6,216
		S317.2,399.6,216,399.6z"/>
	<path class="st0" d="M229,71.9l-13-17.4l-13,17.4c-1,1.3-23.9,32.1-47.3,69.8c-32.9,53.2-48.9,91-48.9,115.7
		c0,60.2,49,109.1,109.1,109.1c60.2,0,109.1-49,109.1-109.1c0-24.7-16-62.5-48.9-115.7C252.9,104,229.9,73.2,229,71.9z M232.2,234
		l38-38c4.9,9.2,8.7,17.1,11.8,24.1l-49.8,49.8V234z M253.6,166.8l-21.4,21.4v-55.1c5.3,8,11,16.8,16.6,25.9
		C250.5,161.7,252,164.3,253.6,166.8z M139.3,257.4c0-24.9,30.6-79.2,60.5-124.5v199.5C165.2,325,139.3,294.2,139.3,257.4z
		 M232.2,332.5v-16.8l60.5-60.5c0.1,0.8,0.1,1.6,0.1,2.3C292.7,294.2,266.8,325,232.2,332.5z"/>
</g>
<g>
</g>
<g>
</g>
<g>
</g>
<g>
</g>
<g>
</g>
<g>
</g>
</svg>
